<svg viewBox="0 0 90 90" xmlns="http://www.w3.org/2000/svg" fill="#000" stroke="none">
	<g transform="translate(45, 46) scale(1, -1) rotate(90) translate(-45, -46) translate(28, 17)">
		<path d="M15.6,-2.8 L15.6,-2.8 L15.6,-2.8 C16.7,-2.8 17.6,-2 17.7,-0.8 L20,33.2 L20,33.2 C20.1,35 18.7,36.6 16.9,36.8 L16.9,36.8 L16.9,36.8 C15.2,37 13.7,35.8 13.6,34.1 C13.6,34 13.6,33.9 13.6,33.8 L13.6,-0.8 L13.6,-0.8 C13.6,-1.9 14.5,-2.8 15.6,-2.8 Z" transform="translate(16.8, 17) scale(-1, 1) rotate(-315) translate(-16.8, -17) "></path>
		<path d="M17.9,20.9 L18.1,20.9 L18.1,20.9 C19.2,20.9 20.1,21.8 20.1,22.9 L20.1,58.7 L20.1,58.7 C20.1,59.8 19.2,60.7 18.1,60.7 C18,60.7 17.9,60.7 17.9,60.7 L15.1,60.4 L15.1,60.4 C14,60.3 13.2,59.4 13.3,58.3 L15.9,22.8 L15.9,22.8 C16,21.7 16.9,20.9 17.9,20.9 Z" transform="translate(16.7, 40.8) scale(-1, 1) rotate(-585) translate(-16.7, -40.8) "></path>
	</g>
</svg>
