<?xml version="1.0" encoding="UTF-8" standalone="no"?>
<svg width="14px" height="14px" viewBox="0 0 14 14" version="1.1" xmlns="http://www.w3.org/2000/svg" xmlns:xlink="http://www.w3.org/1999/xlink">
    <!-- Generator: Sketch 46.2 (44496) - http://www.bohemiancoding.com/sketch -->
    <title>关闭整体</title>
    <desc>Created with Sketch.</desc>
    <defs></defs>
    <g id="Page-1" stroke="none" stroke-width="1" fill="none" fill-rule="evenodd">
        <g id="关闭整体" transform="translate(-3.000000, -3.000000)">
            <rect id="Rectangle-15" x="0" y="0" width="20" height="20"></rect>
            <g id="Group-11" transform="translate(3.000000, 3.000000)" fill-rule="nonzero" fill="#666666">
                <path d="M1.70710678,13.7071068 L13.7071068,1.70710678 C14.0976311,1.31658249 14.0976311,0.683417511 13.7071068,0.292893219 C13.3165825,-0.0976310729 12.6834175,-0.0976310729 12.2928932,0.292893219 L0.292893219,12.2928932 C-0.0976310729,12.6834175 -0.0976310729,13.3165825 0.292893219,13.7071068 C0.683417511,14.0976311 1.31658249,14.0976311 1.70710678,13.7071068 Z" id="Path-3-Copy-3" transform="translate(7.000000, 7.000000) scale(-1, 1) translate(-7.000000, -7.000000) "></path>
                <path d="M1.70710678,13.7071068 L13.7071068,1.70710678 C14.0976311,1.31658249 14.0976311,0.683417511 13.7071068,0.292893219 C13.3165825,-0.0976310729 12.6834175,-0.0976310729 12.2928932,0.292893219 L0.292893219,12.2928932 C-0.0976310729,12.6834175 -0.0976310729,13.3165825 0.292893219,13.7071068 C0.683417511,14.0976311 1.31658249,14.0976311 1.70710678,13.7071068 Z" id="Path-3-Copy-4"></path>
            </g>
        </g>
    </g>
</svg>