<?xml version="1.0" encoding="UTF-8" standalone="no"?>
<svg width="10px" height="15px" viewBox="0 0 10 15" version="1.1" xmlns="http://www.w3.org/2000/svg" xmlns:xlink="http://www.w3.org/1999/xlink">
    <!-- Generator: Sketch 46.2 (44496) - http://www.bohemiancoding.com/sketch -->
    <title>暂停</title>
    <desc>Created with Sketch.</desc>
    <defs></defs>
    <g id="Page-1" stroke="none" stroke-width="1" fill="none" fill-rule="evenodd">
        <g id="暂停" transform="translate(-5.000000, -3.000000)">
            <rect id="Rectangle-15" x="0" y="0" width="20" height="20"></rect>
            <g id="Group-14" transform="translate(5.000000, 4.000000)" fill-rule="nonzero" fill="#999999">
                <path d="M0,0 L0,13 C0,13.5522847 0.44771525,14 1,14 C1.55228475,14 2,13.5522847 2,13 L2,0 C2,-0.55228475 1.55228475,-1 1,-1 C0.44771525,-1 0,-0.55228475 0,0 Z" id="Line-4"></path>
                <path d="M8,0 L8,13 C8,13.5522847 8.44771525,14 9,14 C9.55228475,14 10,13.5522847 10,13 L10,0 C10,-0.55228475 9.55228475,-1 9,-1 C8.44771525,-1 8,-0.55228475 8,0 Z" id="Line-4-Copy"></path>
            </g>
        </g>
    </g>
</svg>