<?xml version="1.0" encoding="UTF-8" standalone="no"?>
<svg width="19px" height="17px" viewBox="0 0 19 17" version="1.1" xmlns="http://www.w3.org/2000/svg" xmlns:xlink="http://www.w3.org/1999/xlink">
    <!-- Generator: Sketch 46.2 (44496) - http://www.bohemiancoding.com/sketch -->
    <title>重新上传</title>
    <desc>Created with Sketch.</desc>
    <defs>
        <rect id="path-1" x="0" y="0" width="20" height="20"></rect>
    </defs>
    <g id="Page-1" stroke="none" stroke-width="1" fill="none" fill-rule="evenodd">
        <g id="重新上传" transform="translate(-1.000000, -2.000000)">
            <mask id="mask-2" fill="white">
                <use xlink:href="#path-1"></use>
            </mask>
            <g id="Mask"></g>
            <g id="Group-16" mask="url(#mask-2)" fill-rule="nonzero" fill="#999999">
                <g transform="translate(1.000000, 2.000000)">
                    <path d="M16.5383483,5.7305813 C15.3665865,2.32891083 12.1556792,0 8.5,0 C3.80557963,0 0,3.80557963 0,8.5 C0,13.1944204 3.80557963,17 8.5,17 C11.9632952,17 15.040241,14.9092849 16.349421,11.7664764 C16.5617935,11.2566565 16.3206647,10.6712038 15.8108448,10.4588313 C15.3010249,10.2464588 14.7155722,10.4875876 14.5031997,10.9974076 C13.5018932,13.4011371 11.1488158,15 8.5,15 C4.91014913,15 2,12.0898509 2,8.5 C2,4.91014913 4.91014913,2 8.5,2 C11.2956774,2 13.751544,3.78127048 14.647392,6.3819525 C14.8272632,6.90412565 15.3963826,7.18161622 15.9185558,7.00174503 C16.4407289,6.82187383 16.7182195,6.25275445 16.5383483,5.7305813 Z" id="Oval-16"></path>
                    <path d="M12.7677233,3.35736794 C12.4141592,2.93309104 11.7835945,2.87576698 11.3593176,3.22933106 C10.9350407,3.58289514 10.8777167,4.21345984 11.2312807,4.63773674 L14.7312807,8.83773674 C15.1236183,9.30854182 15.8432872,9.3188899 16.2489992,8.85955991 L19.7615278,4.88282269 C20.1271445,4.46888685 20.0879741,3.83693466 19.6740382,3.47131797 C19.2601024,3.10570128 18.6281502,3.14487169 18.2625335,3.55880754 L15.5215817,6.66199797 L12.7677233,3.35736794 Z" id="Path-2-Copy-3" transform="translate(15.505760, 6.097540) rotate(-30.000000) translate(-15.505760, -6.097540) "></path>
                </g>
            </g>
        </g>
    </g>
</svg>